/* XPM */
static char * 5600_Danger_KD_day_xpm[] = {
"24 24 10 1",
" 	c None",
".	c #FFFFFF",
"+	c #6F716E",
"@	c #020300",
"&	c #444508",
"#	c #63650C",
"*	c #74770E",
"=	c #B2B615",
"$	c #C2C617",
"%	c #F7FC1D",
"                        ",
"                        ",
"                        ",
"   ..................   ",
"   .+@@@@@@@@@@@@@@+.   ",
"   .@#$$$$$$$$$$$$#@.   ",
"   .@$%%%%%%%%%%%%$@.   ",
"   .@$%%&&&**%%%%%$@.   ",
"   .@$%&@@@**&%#%%$@.   ",
"   .@$%&@@@****@#%$@.   ",
"   .@$%&@@@@@&*@&$$@.   ",
"   .@$%&@@@@@&*@@@$@.   ",
"   .@$%&@@@@@&*@@@#@.   ",
"   .@$%&@**&@&*@@@#@.   ",
"   .@$%&&*&#@&*@&#$@.   ",
"   .@$%&&*&#@@&@#%$@.   ",
"   .@$%#@*=@@#%%%%$@.   ",
"   .@$%%=====%%%%%$@.   ",
"   .@#=========$$$#@.   ",
"   .+@@@@@@@@@@@@@@+.   ",
"   ..................   ",
"                        ",
"                        ",
"                        "};
