/* XPM */
static char *
E:\_MAPY_\UMP_pcPL\narzedzia\ikonki\punkty\5a00_Mile_marker_Slupek_milowy_maly_d
ay_xpm[]
= {
"6 15 4 1",
"     c None",
".    c #000000",
"+    c #FF0000",
"@    c #FFFFFF",
"      ",
"   .. ",
" ..@. ",
" .@+. ",
" .++. ",
" .+@. ",
" .@@. ",
" .... ",
" .@.. ",
" ..@. ",
" .@@. ",
" .@@. ",
" .@@. ",
" .... ",
"      "};

