/* XPM */
static char * fryzjer_xpm[] = {
"20 20 9 1",
"     c None",
".    c #120F00",
"+    c #6B5A0D",
"@    c #B18F00",
"#    c #A6A1A0",
"$    c #DFB407",
"%    c #B9B4B3",
"&    c #FFD116",
"*    c #FCF6F5",
"                    ",
"  ****************  ",
" %*$&&&&&&&&&&&&&** ",
" #$$&&&&&&&&&&&$&&* ",
" #@$&&&&&&&&&+...$* ",
" #@@+@&&&&&&$.@$.+* ",
" #@+...@&&&&@.&&.+* ",
" #@@&+...@&$..+..$* ",
" #@@&&$........+$&* ",
" #@@&&&&.....@&&&&* ",
" #@@&&$+.......+@&* ",
" #@@&+...@&$..+..$* ",
" #@@...@&&&&@.&&.+* ",
" #@@+@&&&&&&$.@$.+* ",
" #@@&&&&&&&&&+...$* ",
" #@@@$$$$$$$$$$$&&* ",
" #@@@@$$$$$$$$$$&&* ",
" ##@@@@@@@@@@@$$&** ",
"  #####%#%%%%%%%**  ",
"                    "};
