/* XPM */
static char * tatoo_xpm[] = {
"20 20 11 1",
"     c None",
".    c #070800",
"+    c #241F07",
"@    c #282203",
"#    c #AE8C00",
"$    c #C8A200",
"%    c #A6A1A0",
"&    c #B9B4B3",
"*    c #E7BE1D",
"=    c #FDCE0B",
"-    c #F9F3F2",
"                    ",
"  ----------------  ",
" &-*=============-- ",
" %$$======**======- ",
" %#$=====*@@*****=- ",
" %#$====*@...@@@@*- ",
" %##====*...@**$+$- ",
" %##===*+..$*==*@@- ",
" %#$==*+...+**==$@- ",
" %#$=*+......@*=*@- ",
" %#$*@.+$+...@*=$@- ",
" %#$*.+*=*..@*=*+@- ",
" %##@@*==*@****@+$- ",
" %##@*====*=*@@@$=- ",
" %##*=======*@$*==- ",
" %###$******$@$*==- ",
" %###$$$$$$$$+@@*=- ",
" %%###$$$$$$$#$$=-- ",
"  %%%%%&%&&&&&&&--  ",
"                    "};
