/* XPM */
static char * Uslugi_xpm[] = {
"24 24 9 1",
"     c None",
".    c #3E7DDF",
"+    c #5D91D7",
"@    c #7497A0",
"#    c #9BB4DD",
"$    c #BDBA49",
"%    c #C4C8C8",
"&    c #EAD016",
"*    c #ECF3F8",
"           ***          ",
"          *###*         ",
"         *#...#*        ",
"        *#.....#*       ",
"       *#.......#*      ",
"      *#.........#*     ",
"     *#...........#*    ",
"    *#..&&.....&&..#*   ",
"   *#...&&.....&&...#*  ",
"  *#....&&.....&&....#* ",
" *#.....&&.....&&.....#*",
" *+.....&&.....&&.....+*",
" *+.....&&.....&&.....+*",
" %#+....&&.....&&....+#%",
"  %#+...&&+...+&&...+#% ",
"   %#+..$&$+.+$&$..+#%  ",
"    %#+.@&&&&&&&@.+#%   ",
"     %#+.@$&&&$@.+#%    ",
"      %#+.......+#%     ",
"       %#+.....+#%      ",
"        %#+...+#%       ",
"         %#+++#%        ",
"          %%%%%         ",
"                        "};
