/* XPM */
static char * uslugi2_xpm[] = {
"20 20 11 1",
"     c None",
".    c #0C0B00",
"+    c #221D04",
"@    c #272002",
"#    c #A88700",
"$    c #C09B00",
"%    c #A7A1A0",
"&    c #DCB209",
"*    c #B9B4B2",
"=    c #FDD11E",
"-    c #FBF5F4",
"                    ",
"  ----------------  ",
" *-&=====&@&=====-- ",
" %$$====&@.@======- ",
" %#$====&...&=====- ",
" %#$===&+...+&====- ",
" %##==&@.....@&===- ",
" %##==&@$...$@&===- ",
" %#$=&+.&...&.+&==- ",
" %#$&@..&...&..@&=- ",
" %#$&@..&...&..@&=- ",
" %#$=&+.&+.+&.+&==- ",
" %#$==&@&###&@&===- ",
" %#$==&@@&&&@@&===- ",
" %#$===&@...@&====- ",
" %##$&&&$...$&&===- ",
" %##$$&&$+.+$&&&==- ",
" %%##$$$$#@#$$&&=-- ",
"  %%%%%*%*%*****--  ",
"                    "};
